<svg id="Calque_1" data-name="Calque 1" xmlns="http://www.w3.org/2000/svg" viewBox="0 0 109.38 29.73">
<g id="Desktop"><g id="Accueil"><g id="Top-menu"><g id="Logo-Ausha-Blanc"><path id="Shape" class="cls-1" d="M48.24 21.23a.78.78 0 0 1-.2-.55v-.61a3.89 3.89 0 0 1-1.66 1.16 6.26 6.26 0 0 1-2.49.5 7 7 0 0 1-3.65-.93 6.1 6.1 0 0 1-2.38-2.6 7.84 7.84 0 0 1-.81-3.6 7.72 7.72 0 0 1 .83-3.6 6.33 6.33 0 0 1 2.37-2.55 6.79 6.79 0 0 1 3.65-1 6 6 0 0 1 2.46.47A4.06 4.06 0 0 1 48 9.18v-.65a.71.71 0 0 1 .2-.54.68.68 0 0 1 .55-.2H51a.69.69 0 0 1 .55.19.68.68 0 0 1 .2.55v12.16a.69.69 0 0 1-.74.74H48.8a.76.76 0 0 1-.56-.2zm-1.06-9.43a4 4 0 0 0-5.45 0 3.91 3.91 0 0 0-1 2.8 3.82 3.82 0 0 0 1 2.77 3.62 3.62 0 0 0 2.71 1.07 3.66 3.66 0 0 0 2.74-1 3.9 3.9 0 0 0 1-2.82 3.88 3.88 0 0 0-1-2.79z"/><path id="Path" class="cls-1" d="M53.63 15.9V8.57a.68.68 0 0 1 .2-.55.69.69 0 0 1 .55-.2h2.25a.69.69 0 0 1 .55.2.71.71 0 0 1 .2.54v7.33a2.65 2.65 0 0 0 .71 2.11 2.75 2.75 0 0 0 2 .66 2.44 2.44 0 0 0 1.91-.92 3.8 3.8 0 0 0 .69-2.7V8.57a.69.69 0 0 1 .73-.75h2.23a.68.68 0 0 1 .54.2.65.65 0 0 1 .2.54v12.13a.69.69 0 0 1-.74.74h-2.26a.66.66 0 0 1-.55-.2.68.68 0 0 1-.2-.54v-.43A4.63 4.63 0 0 1 61 21.33a5.43 5.43 0 0 1-2 .39q-5.36 0-5.37-5.82z"/><path id="Path-2" data-name="Path" class="cls-1" d="M68.08 20.07a.68.68 0 0 1-.33-.55.89.89 0 0 1 .18-.5L69 17.6a.7.7 0 0 1 .57-.33.9.9 0 0 1 .45.13 9.21 9.21 0 0 0 1.89.79 7.06 7.06 0 0 0 1.93.3 2.65 2.65 0 0 0 1.4-.35 1 1 0 0 0 .56-.87.73.73 0 0 0-.53-.71 5.21 5.21 0 0 0-1.34-.36l-.76-.1a14.83 14.83 0 0 1-2.71-.64 5.09 5.09 0 0 1-1.81-1.19 3.35 3.35 0 0 1-.9-2.46 3.57 3.57 0 0 1 1.68-3.33 7.7 7.7 0 0 1 4-1A8.7 8.7 0 0 1 78.45 9a.59.59 0 0 1 .36.54.82.82 0 0 1-.2.5l-1 1.39a.68.68 0 0 1-.58.32 1 1 0 0 1-.47-.12 6.89 6.89 0 0 0-3.25-.92A2.62 2.62 0 0 0 72 11a.84.84 0 0 0-.56.73c0 .36.23.63.68.79a9.67 9.67 0 0 0 1.9.43 19.59 19.59 0 0 1 2.94.68 4.17 4.17 0 0 1 1.7 1.13 3.66 3.66 0 0 1 .79 2.5 3.92 3.92 0 0 1-1.45 3.3 6.57 6.57 0 0 1-4.15 1.16 10.2 10.2 0 0 1-5.77-1.65z"/><path id="Path-3" data-name="Path" class="cls-1" d="M92.17 9a6.39 6.39 0 0 1 1.3 4.35v7.33a.69.69 0 0 1-.74.74h-2.29a.65.65 0 0 1-.54-.2.68.68 0 0 1-.2-.54v-7.32a2.74 2.74 0 0 0-.7-2.08 2.74 2.74 0 0 0-2-.67 2.41 2.41 0 0 0-1.9.87 3.93 3.93 0 0 0-.71 2.73v6.48a.69.69 0 0 1-.74.74h-2.17a.69.69 0 0 1-.74-.74V3.38a.65.65 0 0 1 .2-.54.68.68 0 0 1 .54-.2h2.21a.75.75 0 0 1 .55.2.75.75 0 0 1 .2.55V9a4.71 4.71 0 0 1 1.67-1.06 5.37 5.37 0 0 1 2-.4A5.16 5.16 0 0 1 92.17 9z"/><path id="Shape-2" data-name="Shape" class="cls-1" d="M105.91 21.23a.7.7 0 0 1-.2-.55v-.61a4 4 0 0 1-1.71 1.16 6.22 6.22 0 0 1-2.49.5 6.94 6.94 0 0 1-3.64-.93 6.06 6.06 0 0 1-2.39-2.6 7.84 7.84 0 0 1-.81-3.6 7.72 7.72 0 0 1 .87-3.6 6.4 6.4 0 0 1 2.37-2.55 6.79 6.79 0 0 1 3.65-1 6 6 0 0 1 2.46.47 4.16 4.16 0 0 1 1.69 1.24v-.63a.67.67 0 0 1 .19-.53.68.68 0 0 1 .55-.2h2.18a.68.68 0 0 1 .75.74v12.15a.69.69 0 0 1-.74.74h-2.18a.72.72 0 0 1-.55-.2zm-1.07-9.43a4 4 0 0 0-5.45 0 3.91 3.91 0 0 0-1 2.8 3.82 3.82 0 0 0 1 2.77 3.62 3.62 0 0 0 2.71 1.07 3.66 3.66 0 0 0 2.74-1 3.86 3.86 0 0 0 1-2.82 3.88 3.88 0 0 0-1-2.79z"/><path id="Path-4" data-name="Path" class="cls-1" d="M14.87 0A14.86 14.86 0 0 0 .61 19.07L3 15.67a2.23 2.23 0 0 1 3.64 2.59l-3.8 5.36a16.27 16.27 0 0 0 1.43 1.68l10.06-14.12A2.23 2.23 0 0 1 18 13.77L7.85 28a14.45 14.45 0 0 0 2.13.93l6.59-9.24a2.23 2.23 0 0 1 3.85.37 2.21 2.21 0 0 1-.22 2.22l-5.33 7.47a14.87 14.87 0 0 0 0-29.75z"/></g></g></g></g></svg>